<svg width="50" height="50" viewBox="0 0 50 50" fill="none" xmlns="http://www.w3.org/2000/svg">
<path d="M25.3672 35.8966L26.3101 36.8394C26.4927 37.0221 26.773 37.0433 26.9981 36.9159C28.5229 36.0452 30.4129 36.0452 31.9418 36.9159C32.1669 37.0433 32.4473 37.0221 32.6299 36.8394L33.5728 35.8966C31.1604 34.0449 27.7796 34.0449 25.3714 35.8966H25.3672Z" fill="white"/>
<path d="M21.2054 31.7351L22.0761 32.6057C22.2885 32.8181 22.6197 32.8308 22.8576 32.644C24.7433 31.1872 27.0453 30.3888 29.4662 30.3888C31.8871 30.3888 34.1891 31.183 36.0749 32.644C36.3127 32.8266 36.644 32.8138 36.8563 32.6057L37.727 31.7351C35.4335 29.7347 32.5369 28.6348 29.462 28.6348C26.387 28.6348 23.4947 29.739 21.2012 31.7351H21.2054Z" fill="white"/>
<path d="M29.4696 24.5278C33.4577 24.5278 37.2292 25.9166 40.2405 28.4606C40.4741 28.6602 40.8181 28.6517 41.0347 28.4351L41.8969 27.5729C38.4906 24.4683 34.1118 22.7695 29.4738 22.7695C24.8359 22.7695 20.457 24.4683 17.0508 27.5729L17.913 28.4351C18.1296 28.6517 18.4736 28.6602 18.7072 28.4606C21.7185 25.9166 25.49 24.5278 29.4781 24.5278H29.4696Z" fill="white"/>
<g opacity="0.4">
<path d="M49.2864 17.2194C44.8099 21.6958 37.5472 21.6958 33.0664 17.2194C28.5898 12.743 28.5898 5.48062 33.0664 1" stroke="url(#paint0_linear_0_1)" stroke-miterlimit="10" stroke-linecap="round"/>
<path d="M41.1751 14.842C44.3418 14.842 46.9088 12.275 46.9088 9.1085C46.9088 5.94197 44.3418 3.375 41.1751 3.375C38.0085 3.375 35.4414 5.94197 35.4414 9.1085C35.4414 12.275 38.0085 14.842 41.1751 14.842Z" stroke="url(#paint1_linear_0_1)" stroke-miterlimit="10" stroke-linecap="round"/>
<path d="M9.10872 26.3557C12.2754 26.3557 14.8424 23.7887 14.8424 20.6222C14.8424 17.4556 12.2754 14.8887 9.10872 14.8887C5.94207 14.8887 3.375 17.4556 3.375 20.6222C3.375 23.7887 5.94207 26.3557 9.10872 26.3557Z" stroke="url(#paint2_linear_0_1)" stroke-miterlimit="10" stroke-linecap="round"/>
<path d="M17.2207 12.5137C20.147 15.4399 21.1621 19.5553 20.2617 23.3054" stroke="url(#paint3_linear_0_1)" stroke-miterlimit="10" stroke-linecap="round"/>
<path d="M16.7996 29.1277C12.2975 33.2049 5.34064 33.0732 1 28.7285" stroke="url(#paint4_linear_0_1)" stroke-miterlimit="10" stroke-linecap="round"/>
<path d="M34.0568 37.5751C35.6495 39.8133 35.4414 42.9391 33.4367 44.948C31.1985 47.1862 27.5671 47.1862 25.3288 44.948C23.2435 42.8627 23.0991 39.5712 24.8956 37.3203" stroke="url(#paint5_linear_0_1)" stroke-miterlimit="10" stroke-linecap="round"/>
<path d="M38.1041 33.4473C41.9563 37.9534 41.7525 44.7359 37.4883 48.9999" stroke="url(#paint6_linear_0_1)" stroke-miterlimit="10" stroke-linecap="round"/>
<path d="M9.10742 37.8221C15.3211 37.8221 19.4663 34.4967 20.8042 33.248" stroke="url(#paint7_linear_0_1)" stroke-miterlimit="10" stroke-linecap="round"/>
<path d="M26.2873 21.4741C26.3001 21.1895 26.3086 20.905 26.3086 20.6204C26.3086 11.1198 18.6084 3.41992 9.10742 3.41992" stroke="url(#paint8_linear_0_1)" stroke-miterlimit="10" stroke-linecap="round"/>
</g>
<defs>
<linearGradient id="paint0_linear_0_1" x1="33.346" y1="18.9365" x2="42.7718" y2="9.26136" gradientUnits="userSpaceOnUse">
<stop stop-color="white"/>
<stop offset="1" stop-color="white" stop-opacity="0"/>
</linearGradient>
<linearGradient id="paint1_linear_0_1" x1="36.3696" y1="18.0254" x2="44.28" y2="8.94928" gradientUnits="userSpaceOnUse">
<stop stop-color="white"/>
<stop offset="1" stop-color="white" stop-opacity="0"/>
</linearGradient>
<linearGradient id="paint2_linear_0_1" x1="11.5807" y1="23.4975" x2="3.97582" y2="15.0279" gradientUnits="userSpaceOnUse">
<stop stop-color="white"/>
<stop offset="1" stop-color="white" stop-opacity="0"/>
</linearGradient>
<linearGradient id="paint3_linear_0_1" x1="20.3476" y1="23.4966" x2="11.2017" y2="7.7328" gradientUnits="userSpaceOnUse">
<stop stop-color="white"/>
<stop offset="1" stop-color="white" stop-opacity="0"/>
</linearGradient>
<linearGradient id="paint4_linear_0_1" x1="14.6034" y1="28.9684" x2="-0.813788" y2="28.9684" gradientUnits="userSpaceOnUse">
<stop stop-color="white"/>
<stop offset="1" stop-color="white" stop-opacity="0"/>
</linearGradient>
<linearGradient id="paint5_linear_0_1" x1="29.3811" y1="37.3203" x2="29.3811" y2="46.6266" gradientUnits="userSpaceOnUse">
<stop stop-color="white"/>
<stop offset="1" stop-color="white" stop-opacity="0"/>
</linearGradient>
<linearGradient id="paint6_linear_0_1" x1="37.8803" y1="36.5688" x2="39.1824" y2="48.9984" gradientUnits="userSpaceOnUse">
<stop stop-color="white"/>
<stop offset="1" stop-color="white" stop-opacity="0"/>
</linearGradient>
<linearGradient id="paint7_linear_0_1" x1="20.3468" y1="34.1372" x2="10.3452" y2="39.5619" gradientUnits="userSpaceOnUse">
<stop stop-color="white"/>
<stop offset="1" stop-color="white" stop-opacity="0"/>
</linearGradient>
<linearGradient id="paint8_linear_0_1" x1="25.4858" y1="21.0637" x2="9.36549" y2="3.52177" gradientUnits="userSpaceOnUse">
<stop stop-color="white"/>
<stop offset="1" stop-color="white" stop-opacity="0"/>
</linearGradient>
</defs>
</svg>
